<svg id="visual" viewBox="0 0 900 600" width="900" height="600" xmlns="http://www.w3.org/2000/svg" xmlns:xlink="http://www.w3.org/1999/xlink" version="1.1"><rect x="0" y="0" width="900" height="600" fill="#001220"></rect><defs><linearGradient id="grad1_0" x1="33.3%" y1="0%" x2="100%" y2="100%"><stop offset="20%" stop-color="#001220" stop-opacity="1"></stop><stop offset="80%" stop-color="#001220" stop-opacity="1"></stop></linearGradient></defs><defs><linearGradient id="grad2_0" x1="0%" y1="0%" x2="66.7%" y2="100%"><stop offset="20%" stop-color="#001220" stop-opacity="1"></stop><stop offset="80%" stop-color="#001220" stop-opacity="1"></stop></linearGradient></defs><g transform="translate(900, 0)"><path d="M0 459.7C-21.3 449.7 -42.6 439.8 -61.8 429.6C-80.9 419.4 -98 409 -120 408.7C-142.1 408.5 -169.2 418.5 -186.9 409.3C-204.7 400.1 -213.2 371.8 -228.7 355.9C-244.2 339.9 -266.8 336.5 -279.6 322.7C-292.4 308.9 -295.4 284.6 -315.1 273.1C-334.9 261.5 -371.3 262.6 -386.7 248.5C-402.2 234.4 -396.6 205.1 -396.6 181.1C-396.6 157.1 -402.2 138.5 -406.8 119.5C-411.4 100.4 -415 80.9 -423.6 60.9C-432.3 40.9 -446 20.5 -459.7 0L0 0Z" fill="#FBAE3C"></path></g><g transform="translate(0, 600)"><path d="M0 -459.7C22 -459.6 43.9 -459.4 65.4 -455C86.9 -450.6 108 -442 125.9 -428.9C143.9 -415.8 158.8 -398.1 177.8 -389.3C196.8 -380.5 220 -380.6 239.5 -372.7C259 -364.7 274.8 -348.8 286.2 -330.3C297.5 -311.7 304.5 -290.6 315.9 -273.7C327.3 -256.8 343.3 -244.2 355.9 -228.7C368.4 -213.2 377.6 -194.8 385.7 -176.1C393.8 -157.4 400.8 -138.4 405.9 -119.2C410.9 -100 414 -80.7 422.7 -60.8C431.3 -40.9 445.5 -20.4 459.7 0L0 0Z" fill="#FBAE3C"></path></g></svg>